<svg width="56" height="54" viewBox="0 0 56 54" fill="none" xmlns="http://www.w3.org/2000/svg">
<path d="M40.7518 15.7336C40.3081 15.7072 39.8572 15.8035 39.4504 16.0116C39.0436 16.2197 38.6973 16.5311 38.451 16.9104L33.8514 23.9429L25.8613 20.2562C25.4842 20.0869 25.0606 20.0213 24.6339 20.066C24.2071 20.1108 23.7923 20.2643 23.4318 20.5109C23.0713 20.7575 22.778 21.0885 22.5816 21.47C22.3853 21.8516 22.293 22.2701 22.3141 22.683L22.855 31.466L14.6338 33.2047C14.1905 33.2975 13.7742 33.5077 13.4319 33.8115C13.0897 34.1153 12.8352 34.5006 12.6971 34.9238C12.5591 35.347 12.543 35.7913 12.6507 36.2065C12.7585 36.6216 12.9857 36.991 13.3068 37.2729L25.2407 47.8117C25.471 48.0162 25.7449 48.1702 26.0457 48.2642C26.3466 48.3581 26.6682 48.3902 26.9911 48.3584C27.4297 48.3177 27.857 48.1626 28.2277 47.9096C28.4075 47.7862 28.5704 47.6399 28.7115 47.475C33.5467 41.9565 39.7422 37.7179 46.6377 35.211C47.2627 34.9753 47.7831 34.5138 48.0845 33.9276C48.2337 33.6388 48.3217 33.3272 48.3432 33.0123C48.3646 32.6974 48.319 32.3862 48.2091 32.0981L42.7236 17.1477C42.5761 16.7469 42.3133 16.4021 41.9648 16.1522C41.6164 15.9023 41.1962 15.7573 40.7518 15.7336Z" fill="#FFAA00"/>
<circle cx="21.2668" cy="17.3479" r="5.1105" transform="rotate(-34.3776 21.2668 17.3479)" fill="#FFAA00"/>
<circle cx="31.3668" cy="32.1104" r="3.83288" transform="rotate(-34.3776 31.3668 32.1104)" fill="#BE9502"/>
<circle cx="41.2459" cy="13.7416" r="3.19406" transform="rotate(-34.3776 41.2459 13.7416)" fill="#FFAA00"/>
<circle cx="10.6665" cy="34.6624" r="3.19406" transform="rotate(-34.3776 10.6665 34.6624)" fill="#FFAA00"/>
<circle cx="24.5403" cy="39.1027" r="1.91644" transform="rotate(-34.3776 24.5403 39.1027)" fill="#BE9502"/>
<circle cx="40.3575" cy="28.2816" r="1.91644" transform="rotate(-34.3776 40.3575 28.2816)" fill="#BE9502"/>
</svg>
