<svg width="21" height="21" viewBox="0 0 21 21" fill="none" xmlns="http://www.w3.org/2000/svg">
<circle cx="10.822" cy="10.2666" r="9.41667" stroke="#FAFAFA" stroke-width="1.25556"/>
<path d="M9.79585 14.573V7.86833H11.3653V14.573H9.79585ZM10.5869 6.76344C10.2939 6.76344 10.0511 6.67137 9.85863 6.48722C9.67448 6.30307 9.58241 6.08126 9.58241 5.82177C9.58241 5.55392 9.67448 5.33211 9.85863 5.15633C10.0511 4.97218 10.2939 4.88011 10.5869 4.88011C10.8798 4.88011 11.1184 4.968 11.3025 5.14377C11.495 5.31118 11.5913 5.52463 11.5913 5.78411C11.5913 6.06033 11.4992 6.2947 11.3151 6.48722C11.1309 6.67137 10.8882 6.76344 10.5869 6.76344Z" fill="#FAFAFA"/>
</svg>
